PathFileType	4	(X/Y/Z)	C:/Users/beibeiliu/ov580/test_trc/User1\sequence.28_training_dense_left.trc
DataRate	CameraRate	NumFrames	NumMarkers	Units	OrigDataRate	OrigDataStartFrame	OrigNumFrames
120	120	8	19	mm	120	183	243
Frame#	Time	ThumbCMC			ThumbMCP			ThumbIP			ThumbTip			IndexMCP			IndexPIP			IndexTip			MiddleMCP			MiddlePIP			MiddleTip			RingMCP			RingPIP			RingTip			PinkyMCP			PinkyPIP			PinkyTip			BackHand1			BackHand2			BackHand3	
		X0	Y0	Z0	X1	Y1	Z1	X2	Y2	Z2	X3	Y3	Z3	X4	Y4	Z4	X5	Y5	Z5	X6	Y6	Z6	X7	Y7	Z7	X8	Y8	Z8	X9	Y9	Z9	X10	Y10	Z10	X11	Y11	Z11	X12	Y12	Z12	X13	Y13	Z13	X14	Y14	Z14	X15	Y15	Z15	X16	Y16	Z16	X17	Y17	Z17	X18	Y18	Z18	
182	1.51667	-93.2722	6.34739	58.7986	-75.3545	6.02489	18.0152	-83.8839	9.678	-13.2982	-101.382	4.09082	-33.3423	-94.2232	62.846	-6.51742	-86.4455	67.4439	-32.7599	-74.6157	63.7008	-62.9362	-119.895	62.466	-19.3069	-113.802	72.5922	-50.0181	-108.092	74.2608	-75.7928	-131.828	43.9623	-27.6248	-125.588	48.641	-55.2371	-115.65	46.591	-82.433	-141.482	20.5433	-21.7894	-131.902	23.4141	-40.2739	-109.657	26.2488	-59.1748	-151.553	23.0292	28.3892	-158.725	9.92928	59.9658	-127.455	32.2468	55.4406	
183	1.525	-94.154	7.63648	57.8649	-75.3584	5.56515	18.1962	-84.0337	9.89085	-11.5978	-106.662	5.68393	-29.4732	-96.2029	62.5502	-8.95007	-83.3458	69.0665	-36.813	-74.9179	64.3905	-60.4832	-122.77	59.4846	-18.4382	-114.461	71.7144	-50.1516	-107.376	74.4594	-79.2836	-134.713	41.9811	-26.3042	-128.19	47.4314	-56.1968	-115.828	46.7357	-78.1428	-143.703	20.0193	-20.0382	-126.545	23.9019	-37.7589	-109.856	29.4817	-54.6638	-149.358	23.8587	32.3212	-161.459	10.0716	58.9752	-128.189	31.3709	57.4263	
184	1.53333	-91.8599	10.3642	56.3241	-75.6333	5.97219	18.3773	-86.8563	9.70793	-10.1319	-102.429	5.45442	-29.8916	-96.5487	61.9682	-7.47644	-87.2514	67.2734	-33.0605	-79.9746	62.6115	-61.1237	-122.742	60.8731	-23.1043	-114.227	71.7103	-45.4928	-107.644	75.0056	-76.5755	-135.943	42.3713	-29.6609	-126.626	47.7077	-53.9046	-116.244	46.5683	-80.9923	-141.649	21.0802	-20.9822	-126.254	24.9061	-37.6201	-111.355	26.6748	-56.8299	-151.36	24.9518	30.2121	-157.877	9.283	59.7099	-127.065	33.8662	55.273	
185	1.54167	-91.5107	8.43295	56.9451	-76.8284	6.78917	17.9747	-86.9355	11.6406	-12.2014	-106.574	6.66451	-29.7968	-95.3295	63.6342	-9.21367	-88.6939	67.5307	-33.7738	-80.2884	62.5564	-61.0477	-119.917	63.2699	-19.4504	-116.108	69.6522	-46.688	-109.043	73.2259	-76.8934	-134.934	41.102	-24.7045	-125.917	48.7463	-50.561	-115.022	46.303	-77.8204	-141.513	20.1736	-15.6997	-127.316	23.9542	-39.7582	-110.215	27.3868	-54.0708	-150.389	25.8047	30.9163	-155.685	12.3609	58.1685	-125.29	34.2932	55.7321	
186	1.55	-89.0734	9.6294	58.7161	-75.786	6.56808	17.8785	-83.1516	9.23299	-12.6301	-102.378	4.51323	-30.9481	-96.1107	61.5201	-5.6421	-86.8639	68.7257	-37.4716	-79.7759	63.8478	-59.9739	-123.267	59.0937	-17.7757	-114.746	71.4056	-48.0406	-109.498	74.1287	-77.0627	-132.333	43.4924	-27.7658	-127.421	47.732	-54.6873	-116.888	46.1252	-81.297	-142.432	20.5964	-21.6668	-127.46	24.875	-35.7466	-105.993	29.1493	-53.9389	-154.106	22.0753	30.2157	-158.511	12.9108	58.9765	-125.126	32.9701	59.0886	
187	1.55833	-93.9409	8.56033	57.8651	-77.7485	6.25826	20.5841	-84.5019	9.54717	-11.818	-103.191	5.88151	-32.6486	-96.2995	63.5108	-8.68298	-88.1059	69.952	-31.7183	-77.6706	64.5412	-63.3475	-120.155	63.4055	-19.5663	-117.778	70.6737	-47.3617	-110.013	73.2335	-75.7845	-132.206	44.6305	-26.9921	-125.121	49.2681	-52.7219	-117.767	47.1111	-76.5499	-142.417	20.8023	-21.6669	-128.942	24.7426	-39.08	-108.676	27.9171	-55.4883	-148.432	25.8485	28.4649	-159.532	10.1807	56.9219	-129.257	33.9026	54.4137	
188	1.56667	-92.2694	10.1227	58.0381	-75.6816	8.26673	18.3064	-84.7021	11.8121	-12.3301	-106.071	6.22166	-31.3843	-96.1378	64.2384	-7.23744	-87.5289	70.4202	-32.0099	-79.3609	64.6448	-62.6615	-124.658	59.4744	-17.8142	-116.243	71.3075	-46.2252	-107.075	75.6693	-80.3706	-135.985	42.3949	-27.8537	-128.309	48.1328	-55.1534	-115.74	47.6519	-79.6787	-139.566	21.5004	-21.7199	-130.503	23.8588	-38.8801	-111.639	26.1079	-56.6096	-154.31	25.5198	26.4063	-159.726	9.3337	60.5267	-129.119	35.4059	53.7462	
189	1.575	-92.2784	11.2553	57.194	-79.4075	9.14385	19.9616	-82.7528	10.8599	-11.1125	-103.979	6.27234	-34.163	-95.2115	65.0859	-4.117	-87.0918	71.8162	-33.1343	-78.0975	67.8972	-59.7345	-122.876	62.1179	-17.8245	-118.421	71.5181	-46.7045	-110.102	74.3588	-79.7206	-133.134	45.3379	-27.4002	-128.9	49.1647	-57.7495	-116.496	50.0452	-81.0857	-141.705	22.214	-22.6015	-128.315	24.2856	-37.409	-108.089	26.8667	-57.2999	-151.815	25.5626	32.1111	-160.631	10.7297	60.8687	-126.257	33.995	55.8838	
